<?xml version="1.0" encoding="UTF-8"?>
<!DOCTYPE svg PUBLIC "-//W3C//DTD SVG 1.1//EN" "http://www.w3.org/Graphics/SVG/1.1/DTD/svg11.dtd">
<!-- Creator: CorelDRAW 2020 (64 Bit) -->
<svg xmlns="http://www.w3.org/2000/svg" xml:space="preserve" width="60.9598mm" height="60.9598mm" version="1.1" style="shape-rendering:geometricPrecision; text-rendering:geometricPrecision; image-rendering:optimizeQuality; fill-rule:evenodd; clip-rule:evenodd"
viewBox="0 0 6095.98 6095.98"
 xmlns:xlink="http://www.w3.org/1999/xlink"
 xmlns:xodm="http://www.corel.com/coreldraw/odm/2003">
 <defs>
  <style type="text/css">
   <![CDATA[
    .fil0 {fill:#010101}
   ]]>
  </style>
 </defs>
 <g id="Camada_x0020_1">
  <metadata id="CorelCorpID_0Corel-Layer"/>
  <path class="fil0" d="M1271.75 4936.31c274.65,-52.97 572.01,-168.27 844.9,-231.72 84.03,-19.53 200.28,75.3 374.16,143.29 132.83,51.95 280.46,91.69 432.51,113.28 1208.51,171.66 2276.78,-781.48 2291.79,-1990.61 15.28,-1231.16 -1020.83,-2200.99 -2238.01,-2064.19 -1200.28,134.9 -1997,1306.44 -1735.63,2486.77 43.56,196.75 127.83,407.74 225.13,575.72 128.84,222.44 131.18,76.02 -50.73,567.8 -39.07,105.62 -126.29,300.79 -144.12,399.66zm-682.94 -4914.81c-223.95,45.44 -361.35,164.98 -455.67,299.04 -139.2,197.86 -124.03,373.54 -124.03,643.53l0 3796.85c0,489.44 -92.99,918.57 314.96,1201.79 195.19,135.51 373.7,124.27 642.7,124.27l3794.66 0c489.97,0 919.02,92.48 1200.63,-315.34 133.81,-193.78 124.93,-373.47 124.93,-642.47l0 -3796.84c0,-492.15 92.39,-918.67 -314.86,-1201.8 -194.91,-135.5 -372.44,-124.87 -642.65,-124.87l-3794.67 0c-201.09,0 -568.1,-20.27 -746,15.84zm232.58 5355.26c160.3,-23.69 860.58,-191.32 1067.45,-239.94 107.43,-25.25 156.77,-58.72 256.5,-5.89 71.45,37.86 155.12,72.82 230.19,99.98 165.72,59.94 342.56,105.02 530.09,129.01 838.41,107.24 1509.11,-205.3 1964.15,-604.74 1060.66,-931.05 1134.49,-2608.81 76.48,-3633.12 -723.74,-700.69 -1913.85,-946.75 -2915.65,-388.57 -218.18,121.56 -480.07,323.48 -639.68,502.47 -658.94,738.99 -862.97,1842.39 -354.99,2821 69.37,133.65 66.26,82.35 29.52,245 -39.42,174.55 -79.47,346.74 -120.91,525.98 -40.17,173.72 -97.4,373.36 -123.15,548.82zm1456.49 -3741.71c-429.82,136.23 -486.9,495.25 -309.12,955.36 234.84,607.75 824.87,1251.5 1434.67,1497.86 380.56,153.75 932,161.26 1117.93,-151.62 197.79,-332.85 -100.24,-496.35 -340.09,-626.77 -468.4,-254.71 -305.16,380.72 -693.05,248.61 -191.36,-65.18 -329.67,-177.11 -455.14,-280.86 -110.22,-91.14 -243.55,-241.43 -333.13,-390.66 -175.78,-292.81 -132.61,-255.71 75.86,-443.05 149.38,-134.25 30.83,-324.01 -84.39,-513.37 -142.83,-234.73 -196.53,-364.28 -413.54,-295.5z"/>
 </g>
</svg>
