<?xml version="1.0" encoding="UTF-8"?>
<!DOCTYPE svg PUBLIC "-//W3C//DTD SVG 1.1//EN" "http://www.w3.org/Graphics/SVG/1.1/DTD/svg11.dtd">
<!-- Creator: CorelDRAW 2020 (64 Bit) -->
<svg xmlns="http://www.w3.org/2000/svg" xml:space="preserve" width="60.9598mm" height="60.9598mm" version="1.1" style="shape-rendering:geometricPrecision; text-rendering:geometricPrecision; image-rendering:optimizeQuality; fill-rule:evenodd; clip-rule:evenodd"
viewBox="0 0 6095.98 6095.98"
 xmlns:xlink="http://www.w3.org/1999/xlink"
 xmlns:xodm="http://www.corel.com/coreldraw/odm/2003">
 <defs>
  <style type="text/css">
   <![CDATA[
    .fil0 {fill:black}
   ]]>
  </style>
 </defs>
 <g id="Camada_x0020_1">
  <metadata id="CorelCorpID_0Corel-Layer"/>
  <g id="_1948718368992">
   <path class="fil0" d="M1119.41 16.65c-445.29,47.52 -764.17,315.15 -931.09,587 -243.22,396.08 -185.21,825.62 -185.21,1336.61l0 2276.64c0,229.86 -16.37,533.48 6.51,753.06 47.12,452.03 307.9,759.89 581.46,933.91 386.63,245.97 828.91,189.2 1337.8,189.2l2285.68 0c230.52,0 538.4,17.19 759.92,-7.35 444.3,-49.22 757.54,-313.44 926.59,-586.21 243.27,-392.51 186.16,-827.87 186.16,-1337.68 0,-278.23 14.03,-2825.71 -6.97,-3030.87 -45.44,-443.93 -313.03,-767.82 -582.12,-933.24 -402.07,-247.18 -817.29,-188.78 -1338.66,-188.78 -761.89,0 -1523.78,0 -2285.67,0 -231.92,0 -531.57,-16.07 -754.4,7.71zm954.45 743.3c-640.06,39.06 -1117.95,492.29 -1268.56,1020.77 -85.66,300.58 -54.85,763.25 -54.85,1095.9 0,273.53 -11.73,919.39 3.55,1147.79 43.08,643.82 494.34,1117.54 1026.29,1268.08 294.86,83.44 763.76,52.88 1094.07,52.88 281.09,0 903.29,11.8 1142.8,-2.97 638.55,-39.37 1115.91,-492.33 1267.34,-1019.75 85.66,-298.34 54.35,-765.63 54.35,-1097.19 0,-269.29 12.03,-926.37 -2.54,-1147.73 -41.72,-634.27 -498.51,-1127.78 -1027.87,-1268.52 -311.3,-82.76 -754.69,-52.35 -1094.44,-52.35 -282.43,0 -898.12,-11.68 -1140.14,3.09z"/>
   <path class="fil0" d="M2249.41 1201.3c-515.98,37.84 -895.5,403.72 -1016.15,832.95 -67.84,241.35 -41.34,1016.17 -41.34,1347.27 0,149.52 -7.78,321.12 3.3,468.03 38.84,515.23 406.32,895.74 838.65,1014.86 237.64,65.48 1017,39.42 1345.36,39.42 146.96,0 319.18,7.78 461.99,-2.7 518.17,-38.03 892.04,-400.61 1014.98,-832.22 68.7,-241.17 42.04,-1016.97 42.04,-1348.35 0,-149.06 8.04,-322.24 -3.49,-468.48 -40.63,-515.17 -407.66,-897.81 -840.22,-1015.12 -234.69,-63.65 -625.94,-38.78 -886.43,-38.78 -288.59,0 -638.54,-17.42 -918.69,3.12zm-337.77 2041.67c87,594.16 626.12,1064.65 1274.92,1022.28 537.9,-35.12 959,-420.83 1082.79,-874.66 130.84,-479.67 -37.75,-1003.84 -441.94,-1301.85 -598.37,-441.18 -1433.45,-249.48 -1784.89,396.65 -123.18,226.44 -168.15,503.06 -130.88,757.58zm2248.41 -1709.82c-397.89,103.66 -249.86,683.17 137.06,599.36 401.99,-87.07 256.13,-701.8 -137.06,-599.36z"/>
   <path class="fil0" d="M2458.64 2730.47c-175.13,327.65 -53.95,759.11 283.93,957.6 329.15,193.36 769.26,90.21 977.6,-240.68 242.34,-384.9 64.29,-805.27 -200.97,-986.28 -147,-100.32 -347.77,-159.46 -567.05,-112.11 -174.26,37.63 -374.96,171.18 -425.7,277.67 -10.84,9.11 -7.04,3.99 -20.19,19.87 -8.5,10.27 -11.27,15.73 -18.19,27.23 -10.32,17.16 -19.79,33.47 -29.43,56.7z"/>
  </g>
 </g>
</svg>
